<svg xmlns="http://www.w3.org/2000/svg" viewBox="0 0 192 192" fill="none">
  <rect width="192" height="192" rx="24" fill="#25D366"/>
  <path d="M96 32c-32.5 0-58.9 22.2-63.3 52.3c-.3 2.3.1 4.6 1.4 6.6l11.9 20.5c1.4 2.4 3.5 4.2 6.1 5.1l16.1 5.8c2.5.9 5.3.6 7.6-.9l7.4-4.6c1.7-1 3.8-1.3 5.7-.6l11.2 4c4.7 1.7 9.7 1.4 14.1-.9l20.1-10c1.9-.9 4.1-1 6.1-.3l10.2 3.5c6.1 2.1 9.6 8.5 7.5 14.6l-4.9 14.3c-.8 2.5-.1 5.3 2.1 7.3l30.1 27.3c2.2 2 2.8 5.2 1.6 7.9l-7.5 17.6c-.9 2.2-.1 4.6 2 6.1l29.6 21.9c2 1.5 3 4 2.5 6.4l-9.6 33.5c-1 3.4 2.5 6.5 6.3 5.7l78-16.1c3.8-.8 5.1-5.4 2.4-8.1l-23.6-23.6c-2-2-2.5-5.1-1.4-7.7l7.9-17.6c1-2.3.3-5-2-6.8l-27.7-23c-2.2-1.8-5.4-1.6-7.5.4l-16.2 15.4c-1.6 1.5-4 1.8-5.9.7l-13.6-7.6c-2-1.1-4.4-1-6.4.5l-12.7 9.4c-1.6 1.2-3.6 1.5-5.5.8L96.2 122.8c-15.8-5.4-26.6-20.8-24-37.3.3-2 1-4 2.2-5.7L96 32z" fill="white"/>
</svg>
